<svg width="113" height="80" viewBox="0 0 113 80" fill="none" xmlns="http://www.w3.org/2000/svg">
<path d="M3.86525 0H108.227C110.362 0 112.092 1.72974 112.092 3.86525V42.5176C112.092 44.6531 110.362 46.3828 108.227 46.3828H3.86525C1.72974 46.3828 0 44.6531 0 42.5176V3.86525C0 1.72952 1.72974 0 3.86525 0Z" fill="#E6EEF3"/>
<path d="M63.7764 15.4607H48.3154C47.2467 15.4607 46.3828 14.5968 46.3828 13.5281C46.3828 12.4593 47.2467 11.5954 48.3154 11.5954H63.7764C64.8452 11.5954 65.7091 12.4593 65.7091 13.5281C65.7091 14.5968 64.8452 15.4607 63.7764 15.4607Z" fill="#CAD3DB"/>
<path d="M104.362 40.5848H7.73097C6.66221 40.5848 5.79834 39.721 5.79834 38.6522C5.79834 37.5834 6.66221 36.7196 7.73097 36.7196H104.362C105.431 36.7196 106.294 37.5834 106.294 38.6522C106.294 39.721 105.431 40.5848 104.362 40.5848Z" fill="#CAD3DB"/>
<path d="M104.362 32.8543H7.73097C6.66221 32.8543 5.79834 31.9905 5.79834 30.9217C5.79834 29.853 6.66221 28.9891 7.73097 28.9891H104.362C105.431 28.9891 106.294 29.853 106.294 30.9217C106.294 31.9905 105.431 32.8543 104.362 32.8543Z" fill="#CAD3DB"/>
<path d="M56.0482 75.3718C55.3487 75.3718 54.6741 74.993 54.33 74.3283C53.8392 73.3813 54.2102 72.2139 55.1571 71.7231C56.9236 70.8089 57.9788 69.6437 57.9788 68.6076C57.9788 67.5716 56.9236 66.4064 55.1571 65.4922C51.9914 63.8514 50.2483 61.5266 50.2483 58.9445C50.2483 56.3625 51.9916 54.0377 55.1571 52.3968C56.1041 51.904 57.2715 52.277 57.7623 53.2239C58.2532 54.1709 57.8821 55.3383 56.9352 55.8291C55.1687 56.7433 54.1135 57.9085 54.1135 58.9445C54.1135 59.9805 55.1687 61.1457 56.9352 62.0599C60.1009 63.7008 61.8441 66.0256 61.8441 68.6076C61.8441 71.1897 60.1007 73.5145 56.9352 75.1554C56.651 75.3024 56.3457 75.3718 56.0482 75.3718Z" fill="#E6EEF3"/>
<path d="M34.7889 79.2371C34.0894 79.2371 33.4148 78.8583 33.0707 78.1935C32.5799 77.2466 32.9509 76.0792 33.8979 75.5883C35.6643 74.6741 36.7195 73.5089 36.7195 72.4729C36.7195 71.4371 35.6643 70.2717 33.8979 69.3575C30.7323 67.7166 28.989 65.3918 28.989 62.8098C28.989 60.2278 30.7323 57.9029 33.8979 56.2621C34.843 55.7672 36.0122 56.1422 36.503 57.0892C36.9939 58.0361 36.6229 59.2035 35.6759 59.6944C33.9094 60.6086 32.8543 61.7738 32.8543 62.8098C32.8543 63.8456 33.9094 65.011 35.6759 65.9252C38.8417 67.5661 40.5848 69.8909 40.5848 72.4729C40.5848 75.055 38.8414 77.3798 35.6759 79.0206C35.392 79.1676 35.0864 79.2371 34.7889 79.2371Z" fill="#E6EEF3"/>
<path d="M77.3067 79.2371C76.6072 79.2371 75.9326 78.8583 75.5886 78.1935C75.0977 77.2466 75.4687 76.0792 76.4157 75.5883C78.1822 74.6741 79.2373 73.5089 79.2373 72.4729C79.2373 71.4371 78.1822 70.2717 76.4157 69.3575C73.2499 67.7166 71.5068 65.3918 71.5068 62.8098C71.5068 60.2278 73.2502 57.9029 76.4157 56.2621C77.3608 55.7672 78.53 56.1422 79.0209 57.0892C79.5117 58.0361 79.1407 59.2035 78.1937 59.6944C76.4273 60.6086 75.3721 61.7738 75.3721 62.8098C75.3721 63.8456 76.4273 65.011 78.1937 65.9252C81.3593 67.5661 83.1026 69.8909 83.1026 72.4729C83.1026 75.055 81.3593 77.3798 78.1937 79.0206C77.9098 79.1676 77.6045 79.2371 77.3067 79.2371Z" fill="#E6EEF3"/>
</svg>
