<svg width="260" height="104" viewBox="0 0 260 104" fill="none" xmlns="http://www.w3.org/2000/svg">
<path d="M167.413 48.2319C167.413 51.447 166.253 54.1193 163.935 56.2494C161.617 58.379 158.346 59.444 154.123 59.444C150.777 59.444 147.814 58.9537 145.233 57.9731C144.471 57.6839 144.002 56.9324 144.002 56.1162C144.002 54.5505 145.668 53.5198 147.156 53.9993C149.317 54.6956 151.599 55.0436 153.999 55.0436C156.649 55.0436 158.698 54.3805 160.147 53.0543C161.637 51.7281 162.383 50.0004 162.383 47.8704C162.383 45.7403 161.555 44.113 159.899 42.9876C158.284 41.8222 155.945 41.2395 152.882 41.2395H152.349C151.203 41.2395 150.274 40.3085 150.274 39.16C150.274 38.0115 151.203 37.0804 152.349 37.0804H152.882C155.2 37.0804 157.145 36.4575 158.719 35.2117C160.333 33.9257 161.141 32.2178 161.141 30.088C161.141 27.9581 160.458 26.3506 159.091 25.2656C157.725 24.1806 155.842 23.6381 153.44 23.6381C151.719 23.6381 150.043 23.9372 148.412 24.5354C146.967 25.0653 145.244 24.1012 145.244 22.5597C145.244 21.8811 145.59 21.2417 146.191 20.9297C148.366 19.8017 150.824 19.2377 153.565 19.2377C157.58 19.2377 160.685 20.2423 162.879 22.2516C165.115 24.2207 166.233 26.6721 166.233 29.6057C166.233 31.7356 165.674 33.6444 164.556 35.3323C163.544 36.9196 163.841 40.7084 165.106 42.1018C165.172 42.1749 165.237 42.2493 165.301 42.3245C166.709 43.8919 167.413 45.8611 167.413 48.2319Z" fill="url(#paint0_linear_546_5936)"/>
<mask id="mask0_546_5936" style="mask-type:luminance" maskUnits="userSpaceOnUse" x="91" y="0" width="49" height="59">
<path d="M139.674 0H91.5634V58.9108H139.674V0Z" fill="white"/>
</mask>
<g mask="url(#mask0_546_5936)">
<path d="M129.362 6.10352e-05C133.849 6.10352e-05 137.487 3.64469 137.487 8.14056C137.487 12.6364 133.849 16.2811 129.362 16.2811H110.298C109.97 16.2774 109.644 16.3388 109.34 16.462C109.036 16.5851 108.759 16.7673 108.525 16.9983C108.406 17.1163 108.115 17.0184 108.132 16.8515C108.526 13.0196 110.05 9.38503 112.519 6.41618C114.816 3.65431 117.826 1.59396 121.206 0.450521C122.215 0.10913 123.284 6.10352e-05 124.349 6.10352e-05H129.362Z" fill="#FFCB99"/>
<path d="M122.706 41.8597C122.84 41.7245 123.185 41.8365 123.166 42.0261C122.771 45.8191 121.269 49.4196 118.837 52.3723C116.529 55.1755 113.489 57.2655 110.071 58.4193C109.099 58.7473 108.071 58.8544 107.046 58.8544H102.648C98.1613 58.8544 94.5241 55.2107 94.5241 50.7154C94.5241 46.2206 98.1613 42.5768 102.648 42.5768H120.933C121.269 42.5812 121.602 42.5176 121.913 42.3892C122.21 42.2681 122.48 42.0877 122.706 41.8597Z" fill="#FFCB99"/>
<path d="M139.675 40.0824C139.686 42.5935 139.186 45.0803 138.204 47.3903C138.004 47.8554 137.784 48.3138 137.546 48.7601C137.54 48.7789 137.533 48.7857 137.533 48.7985C137.53 48.8081 137.526 48.8169 137.52 48.8249C135.5 52.6506 132.228 55.6637 128.253 57.359C125.942 58.3573 123.449 58.8656 120.933 58.8516H108.596L108.738 58.8132C112.723 57.7794 116.277 55.5018 118.885 52.3099C121.493 49.118 123.019 45.1771 123.242 41.0586V41.0518C123.478 40.4371 123.482 39.7574 123.255 39.1396C123.249 39.1268 123.242 39.1072 123.235 39.0944C123.112 38.7975 122.933 38.5275 122.706 38.2998C122.474 38.067 122.197 37.8839 121.892 37.7617C121.588 37.6393 121.261 37.5805 120.933 37.5886H110.298C109.77 37.5886 109.241 37.5698 108.718 37.5179C108.699 37.5179 108.68 37.5111 108.654 37.5111C106.701 37.3561 104.787 36.876 102.991 36.0904C98.5228 34.1634 94.9648 30.5895 93.0532 26.108C92.8014 25.5306 92.5818 24.9397 92.3951 24.3381C91.8371 22.5367 91.5567 20.6606 91.5636 18.7745C91.5524 16.2578 92.0595 13.766 93.0532 11.4546C94.9759 6.9868 98.5314 3.42484 102.991 1.49864C104.293 0.927701 105.66 0.519762 107.061 0.284057C107.113 0.270429 107.151 0.264462 107.177 0.257648C107.189 0.25438 107.203 0.252381 107.216 0.251683C108.234 0.0810154 109.266 -0.00445601 110.298 -0.00384193H122.745C118.742 0.989963 115.16 3.2377 112.52 6.41225C109.88 9.58684 108.32 13.5226 108.067 17.6468C108.04 17.6947 108.016 17.7445 107.996 17.7958C107.869 18.1049 107.805 18.4367 107.809 18.7711C107.805 19.1212 107.871 19.4686 108.002 19.7931C108.016 19.8293 108.033 19.8638 108.054 19.8962C108.165 20.155 108.325 20.3898 108.525 20.5879C108.758 20.82 109.035 21.0031 109.339 21.1262C109.644 21.2495 109.97 21.3102 110.298 21.305H120.933C123.444 21.2916 125.932 21.7907 128.244 22.7717C132.741 24.6654 136.318 28.2486 138.208 32.7532C138.457 33.3371 138.675 33.9342 138.86 34.5419C139.406 36.3376 139.681 38.2052 139.675 40.0824Z" fill="#FA9B09"/>
<g style="mix-blend-mode:multiply" opacity="0.16">
<path d="M123.242 41.0613C123.017 45.2062 121.474 49.1704 118.837 52.3722C116.2 55.5741 112.609 57.8461 108.59 58.8543H104.668C107.959 57.303 110.864 55.0378 113.172 52.223C115.481 49.4079 117.136 46.1141 118.016 42.5791H120.931C121.267 42.5835 121.6 42.5199 121.911 42.3919C122.209 42.2703 122.478 42.0904 122.705 41.862C122.933 41.632 123.115 41.3601 123.242 41.0613Z" fill="#FA9B09"/>
</g>
<g style="mix-blend-mode:multiply" opacity="0.16">
<path d="M126.279 6.10352e-05C122.648 2.70689 115.277 8.95443 113.419 16.2811H110.298C109.97 16.2774 109.644 16.3388 109.34 16.462C109.036 16.5851 108.758 16.7673 108.525 16.9983C108.335 17.1868 108.18 17.4077 108.066 17.6507C108.319 13.5265 109.879 9.59076 112.519 6.41618C115.159 3.2416 118.742 0.993865 122.745 6.10352e-05H126.279Z" fill="#FA9B09"/>
</g>
<g style="mix-blend-mode:multiply" opacity="0.25">
<path d="M137.488 4.87119V16.2845H114.781C116.67 16.0971 118.566 15.9685 120.456 15.8774C122.346 15.7862 124.242 15.707 126.131 15.6772C128.027 15.6193 129.917 15.6261 131.813 15.6065C133.513 15.6261 135.198 15.6261 136.895 15.6644C136.914 14.9217 136.928 14.1781 136.959 13.4295C136.992 12.4789 137.024 11.5292 137.083 10.5795C137.176 8.67674 137.301 6.77054 137.488 4.87119Z" fill="#FA9B09"/>
</g>
<g style="mix-blend-mode:screen" opacity="0.7">
<path d="M139.675 40.0833C139.686 42.5941 139.186 45.0809 138.204 47.3913C138.004 47.856 137.784 48.3143 137.546 48.7606C137.611 48.5863 137.823 48.03 138.142 47.1773C138.634 45.7275 138.956 44.225 139.102 42.7005C139.194 41.691 139.214 40.6756 139.161 39.6632C139.096 38.5435 138.941 37.4309 138.697 36.3364C138.57 35.7703 138.413 35.2116 138.226 34.6627C138.006 34.0946 137.787 33.5187 137.568 32.9438C137.075 31.8133 136.47 30.7355 135.762 29.7269C135.071 28.7048 134.273 27.7601 133.381 26.9092C132.522 26.0835 131.589 25.3377 130.595 24.6811C129.652 24.0676 128.662 23.5296 127.635 23.0722C126.709 22.6732 125.754 22.3469 124.778 22.096C123.292 21.727 121.773 21.5084 120.244 21.4437C119.122 21.3585 118.483 21.3083 118.483 21.3083H120.928C123.439 21.2948 125.927 21.7938 128.239 22.775C132.736 24.6686 136.312 28.2519 138.203 32.7564C138.453 33.3403 138.67 33.9375 138.855 34.5452C139.402 36.3398 139.679 38.2065 139.675 40.0833Z" fill="#FA9B09"/>
</g>
<g style="mix-blend-mode:multiply" opacity="0.25">
<path d="M106.558 58.8517H94.5241V46.5442C94.672 47.5712 94.7621 48.5882 94.859 49.6196C94.9364 50.6471 95.0078 51.6741 95.0529 52.6947C95.1175 53.7217 95.1303 54.75 95.1685 55.777L95.1949 58.1798C95.9745 58.1926 96.755 58.1926 97.5355 58.2122C98.5353 58.2514 99.5351 58.2642 100.541 58.329C102.547 58.4257 104.552 58.5741 106.558 58.8517Z" fill="#FA9B09"/>
</g>
<g style="mix-blend-mode:screen" opacity="0.7">
<path d="M108.654 37.5116C106.701 37.3566 104.787 36.8764 102.991 36.0908C98.5228 34.1639 94.9648 30.59 93.0532 26.1084C92.8014 25.5311 92.5818 24.9402 92.3951 24.3385C91.8371 22.5372 91.5567 20.661 91.5636 18.775C91.5524 16.2583 92.0595 13.7665 93.0532 11.4551C94.9759 6.98728 98.5314 3.4253 102.991 1.49909C104.293 0.928156 105.66 0.520218 107.061 0.284515C106.358 0.453861 105.665 0.660846 104.984 0.90458C100.366 2.557 96.5449 5.90242 94.2919 10.2661C92.802 13.1315 92.1006 16.3427 92.2599 19.5696C92.3099 21.1911 92.5901 22.7971 93.0923 24.3394C93.2402 24.7329 93.3822 25.1272 93.5242 25.5148L93.6271 25.8052L93.6534 25.8768C93.6593 25.8889 93.6636 25.9018 93.6662 25.9151L93.7308 26.0573L93.9756 26.6067C94.3013 27.3178 94.674 28.0065 95.0911 28.6679C95.8819 29.9273 96.8147 31.0914 97.8712 32.1371C98.8301 33.0731 99.88 33.9107 101.005 34.6378C101.965 35.2483 102.973 35.7818 104.017 36.2331C104.832 36.5803 105.673 36.8634 106.532 37.0797C107.232 37.2594 107.94 37.4034 108.654 37.5116Z" fill="#FA9B09"/>
</g>
<g style="mix-blend-mode:screen" opacity="0.7">
<path d="M122.745 6.10352e-05C118.742 0.993865 115.16 3.2416 112.52 6.41618C109.879 9.59076 108.32 13.5265 108.067 17.6507C108.039 17.6985 108.016 17.7484 107.996 17.7997L108.048 17.6379C108.028 17.1268 108.028 16.6107 108.028 16.0937C108.067 15.5775 108.124 15.0606 108.176 14.5367C108.261 14.0257 108.376 13.5146 108.473 13.0036C108.602 12.4925 108.777 12.002 108.925 11.4918C109.095 10.9943 109.305 10.5156 109.511 10.025C109.73 9.54721 109.989 9.08812 110.221 8.61628C110.491 8.15804 110.788 7.72535 111.071 7.27307C111.381 6.84718 111.703 6.42645 112.026 6.01248C112.374 5.61215 112.742 5.23146 113.096 4.84304C113.483 4.4819 113.862 4.11992 114.264 3.77071L115.521 2.80825C115.96 2.51781 116.405 2.24609 116.856 1.96842C117.327 1.7359 117.785 1.48379 118.255 1.25723L119.713 0.689112C120.224 0.540058 120.719 0.391853 121.223 0.263241C121.726 0.161031 122.236 0.0775695 122.745 6.10352e-05Z" fill="#FA9B09"/>
</g>
<g style="mix-blend-mode:screen" opacity="0.7">
<path d="M123.359 41.0522C123.365 41.5821 123.365 42.0989 123.352 42.622C123.32 43.1459 123.255 43.6626 123.197 44.1857C123.107 44.7024 123.004 45.2195 122.888 45.7366C122.758 46.2478 122.591 46.7513 122.442 47.2544C122.272 47.7587 122.049 48.2366 121.847 48.7281C121.628 49.2129 121.377 49.6776 121.131 50.1495C120.867 50.6078 120.571 51.0473 120.287 51.4997C119.977 51.9324 119.654 52.3515 119.332 52.7723C118.984 53.1734 118.616 53.5609 118.262 53.9545C117.875 54.3232 117.497 54.6851 117.094 55.0403L115.836 56.0097C115.397 56.3005 114.953 56.584 114.501 56.8612L113.102 57.5914L111.638 58.1789L110.135 58.6185C109.748 58.6961 109.37 58.7736 108.987 58.8384L109.072 58.8508L108.626 58.9028C108.62 58.9096 108.601 58.9096 108.601 58.9096L108.594 58.8508L108.588 58.7932L108.736 58.8128C112.722 57.779 116.276 55.5014 118.884 52.3095C121.491 49.1173 123.017 45.1767 123.24 41.0582V41.0514C123.366 40.7439 123.427 40.4139 123.421 40.082C123.467 40.4063 123.446 40.7367 123.359 41.0522Z" fill="#FA9B09"/>
</g>
</g>
<path d="M5.11982 103.667C4.21083 103.667 3.36211 103.557 2.57368 103.334C1.79483 103.104 1.16887 102.829 0.695814 102.512C0.231936 102.189 0 101.891 0 101.629C0 101.48 0.0510967 101.286 0.152894 101.044C0.264273 100.804 0.389624 100.587 0.528947 100.396C0.667871 100.209 0.77885 100.112 0.862284 100.112C0.936936 100.112 1.09941 100.196 1.34932 100.364C1.92457 100.704 2.49504 100.982 3.06072 101.202C3.62639 101.425 4.31302 101.535 5.11982 101.535C5.75017 101.535 6.31146 101.396 6.80328 101.124C7.2947 100.849 7.67515 100.464 7.94381 99.9693C8.22246 99.465 8.36138 98.8859 8.36138 98.2324C8.36138 97.5369 8.19451 96.9646 7.86038 96.5115C7.53582 96.0492 7.13701 95.6836 6.66395 95.4217C6.20008 95.1465 5.52342 94.8102 4.63279 94.4122C3.66831 93.9887 2.90303 93.6004 2.33736 93.2412C1.78086 92.8725 1.30341 92.3422 0.904201 91.6467C0.514975 90.9512 0.320164 90.0294 0.320164 88.8844C0.320164 87.8817 0.547313 86.9888 1.00161 86.1996C1.45631 85.3974 2.10062 84.7763 2.93576 84.3332C3.7705 83.8932 4.7302 83.67 5.81524 83.67C6.30706 83.67 6.86795 83.7509 7.4987 83.9094C8.12944 84.055 8.66757 84.262 9.11269 84.524C9.56738 84.786 9.79413 85.0771 9.79413 85.3941C9.79413 85.53 9.74343 85.7176 9.64124 85.9602C9.54822 86.1931 9.43724 86.4033 9.3075 86.5941C9.17735 86.7818 9.07556 86.8756 9.00131 86.8756C8.91788 86.8756 8.751 86.798 8.5003 86.6395C8.08313 86.3871 7.67035 86.1866 7.26196 86.041C6.85397 85.8825 6.35816 85.8017 5.77373 85.8017C4.81842 85.8017 4.04396 86.0831 3.45034 86.6395C2.8659 87.199 2.57368 87.9785 2.57368 88.9779C2.57368 89.5766 2.70383 90.0714 2.96331 90.4629C3.22319 90.8508 3.55254 91.1616 3.95095 91.3943C4.34976 91.6271 4.90625 91.8959 5.62083 92.1998C5.66674 92.2094 5.77372 92.2514 5.94059 92.3262C6.92384 92.7593 7.72584 93.18 8.34741 93.5908C8.97815 93.9887 9.5115 94.5674 9.94743 95.3277C10.3925 96.0847 10.6153 97.055 10.6153 98.2324C10.6153 99.3386 10.3878 100.303 9.93346 101.124C9.48834 101.946 8.84841 102.576 8.01367 103.02C7.18811 103.45 6.22363 103.667 5.11982 103.667ZM18.8932 103.667C16.8433 103.667 15.3176 103.062 14.3159 101.849C13.3235 100.629 12.8273 98.7663 12.8273 96.2595C12.8273 93.7751 13.3143 91.8895 14.288 90.6053C15.2621 89.3079 16.6948 88.6612 18.5867 88.6612C20.2749 88.6612 21.5456 89.2823 22.3987 90.5241C23.2614 91.7695 23.6925 93.5908 23.6925 95.9908C23.6925 96.0943 23.6418 96.2431 23.5396 96.4339C23.447 96.6119 23.3312 96.7734 23.1919 96.9226C23.0622 97.0582 22.9508 97.1262 22.8582 97.1262H15.0533C15.1551 98.6951 15.5076 99.8433 16.1104 100.571C16.7228 101.286 17.6409 101.645 18.8653 101.645C19.5515 101.645 20.1404 101.551 20.6318 101.36C21.1328 101.169 21.6154 100.94 22.0789 100.665C22.1252 100.646 22.1947 100.607 22.2877 100.555C22.3803 100.503 22.4454 100.477 22.4821 100.477C22.5843 100.477 22.7001 100.571 22.8302 100.759C22.9691 100.94 23.0853 101.143 23.1779 101.377C23.2801 101.597 23.3312 101.761 23.3312 101.865C23.3312 102.098 23.1272 102.356 22.7188 102.641C22.3109 102.923 21.7635 103.165 21.0773 103.366C20.3999 103.566 19.6721 103.667 18.8932 103.667ZM21.4809 95.1045C21.4809 92.1578 20.4929 90.6829 18.5172 90.6829C16.3934 90.6829 15.2385 92.1578 15.0533 95.1045H21.4809ZM32.1932 103.667C30.1433 103.667 28.6131 103.072 27.6019 101.881C26.6003 100.681 26.0997 98.7531 26.0997 96.1007C26.0997 93.416 26.6606 91.5043 27.7832 90.3689C28.9053 89.2303 30.3014 88.6612 31.9704 88.6612C32.592 88.6612 33.1904 88.726 33.7653 88.852C34.3401 88.9683 34.804 89.1235 35.1565 89.3243C35.509 89.5247 35.6851 89.735 35.6851 89.9582C35.6851 90.1038 35.6388 90.2977 35.5461 90.5405C35.4627 90.7832 35.3561 90.9996 35.226 91.1876C35.1054 91.3683 34.994 91.4591 34.8922 91.4591C34.8643 91.4591 34.8228 91.4463 34.7669 91.4267C34.7114 91.3943 34.6603 91.3683 34.614 91.3459C33.7793 90.906 32.8794 90.6829 31.915 90.6829C30.774 90.6829 29.893 91.1096 29.2714 91.9638C28.6499 92.8049 28.3397 94.1635 28.3397 96.0396C28.3397 97.3657 28.4646 98.4395 28.7149 99.261C28.9656 100.07 29.3688 100.672 29.9253 101.06C30.4914 101.451 31.2427 101.645 32.1792 101.645C33.2088 101.645 34.1361 101.402 34.9617 100.917C35.0451 100.898 35.1054 100.875 35.1425 100.856C35.1893 100.824 35.2216 100.807 35.24 100.807C35.3421 100.807 35.4579 100.898 35.5877 101.076C35.7174 101.253 35.8292 101.461 35.9218 101.693C36.0236 101.923 36.0747 102.108 36.0747 102.243C36.0747 102.466 35.8986 102.686 35.5461 102.91C35.1936 103.13 34.7162 103.314 34.113 103.459C33.5194 103.599 32.8794 103.667 32.1932 103.667ZM42.6971 103.667C41.4356 103.667 40.448 103.266 39.7334 102.466C39.0196 101.655 38.6623 100.539 38.6623 99.1186V89.3891C38.6623 88.9779 38.9961 88.7712 39.664 88.7712H39.7614C40.4201 88.7712 40.7494 88.9779 40.7494 89.3891V98.8955C40.7494 99.7593 40.9674 100.435 41.4033 100.917C41.8484 101.393 42.4696 101.629 43.2676 101.629C43.8241 101.629 44.3806 101.454 44.9371 101.108C45.4932 100.749 45.9758 100.264 46.3838 99.6557V89.3891C46.3838 88.9779 46.7132 88.7712 47.3714 88.7712H47.4688C48.1367 88.7712 48.4705 88.9779 48.4705 89.3891V99.355C48.4705 100.578 48.5172 101.461 48.6098 102.007C48.7024 102.544 48.7491 102.838 48.7491 102.894C48.7491 103.123 48.5958 103.292 48.29 103.398C47.9834 103.492 47.696 103.541 47.4273 103.541C47.1954 103.541 47.0237 103.392 46.9127 103.098C46.8014 102.793 46.7175 102.483 46.6621 102.166C46.6157 101.849 46.583 101.651 46.5646 101.567C46.0453 102.231 45.4425 102.745 44.7558 103.114C44.0792 103.482 43.3925 103.667 42.6971 103.667ZM53.813 103.557C53.4605 103.557 53.2054 103.508 53.0478 103.414C52.8901 103.308 52.8114 103.149 52.8114 102.939V93.0828C52.8114 91.8635 52.7603 90.9836 52.6585 90.4465C52.5559 89.8998 52.5052 89.599 52.5052 89.5474C52.5052 89.3147 52.6585 89.1527 52.9643 89.0559C53.2797 88.9523 53.5763 88.8972 53.855 88.8972C54.0773 88.8972 54.2442 89.0363 54.3555 89.3079C54.4669 89.5734 54.5643 89.9454 54.6478 90.4305L54.7172 90.7636C55.5987 89.3631 56.5536 88.6612 57.5831 88.6612C58.0562 88.6612 58.4131 88.7616 58.6542 88.9619C58.8957 89.1527 59.0163 89.4083 59.0163 89.735C59.0163 90.0522 58.9652 90.3885 58.863 90.7476C58.7704 91.0936 58.659 91.2684 58.5293 91.2684C58.4642 91.2684 58.3484 91.236 58.1812 91.1744C58.033 91.1 57.8849 91.0484 57.7364 91.016C57.5879 90.974 57.3979 90.9512 57.166 90.9512C56.7855 90.9512 56.4238 91.0776 56.0805 91.3295C55.7468 91.5851 55.4641 91.8635 55.2322 92.1674C55.0003 92.475 54.8841 92.6429 54.8841 92.6721V102.939C54.8841 103.149 54.8055 103.308 54.6478 103.414C54.4901 103.508 54.2442 103.557 53.9104 103.557H53.813ZM67.0575 103.667C65.008 103.667 63.4822 103.062 62.4802 101.849C61.4878 100.629 60.992 98.7663 60.992 96.2595C60.992 93.7751 61.4786 91.8895 62.4527 90.6053C63.4267 89.3079 64.8595 88.6612 66.7513 88.6612C68.4396 88.6612 69.7102 89.2823 70.5633 90.5241C71.426 91.7695 71.8572 93.5908 71.8572 95.9908C71.8572 96.0943 71.8061 96.2431 71.7043 96.4339C71.6117 96.6119 71.4955 96.7734 71.3566 96.9226C71.2268 97.0582 71.115 97.1262 71.0224 97.1262H63.2175C63.3197 98.6951 63.6722 99.8433 64.275 100.571C64.887 101.286 65.8052 101.645 67.0296 101.645C67.7162 101.645 68.305 101.551 68.7964 101.36C69.2975 101.169 69.7797 100.94 70.2432 100.665C70.2899 100.646 70.3594 100.607 70.4524 100.555C70.545 100.503 70.6096 100.477 70.6468 100.477C70.749 100.477 70.8647 100.571 70.9949 100.759C71.1338 100.94 71.2496 101.143 71.3426 101.377C71.4448 101.597 71.4955 101.761 71.4955 101.865C71.4955 102.098 71.2915 102.356 70.8831 102.641C70.4751 102.923 69.9282 103.165 69.242 103.366C68.5645 103.566 67.8368 103.667 67.0575 103.667ZM69.6452 95.1045C69.6452 92.1578 68.6575 90.6829 66.6819 90.6829C64.5581 90.6829 63.4032 92.1578 63.2175 95.1045H69.6452Z" fill="#FA9B09"/>
<path d="M105.016 103.564C104.091 103.564 103.226 103.461 102.423 103.252C101.63 103.038 100.992 102.78 100.51 102.484C100.038 102.182 99.8016 101.903 99.8016 101.658C99.8016 101.519 99.8535 101.338 99.9573 101.111C100.071 100.887 100.198 100.684 100.34 100.506C100.482 100.33 100.595 100.24 100.68 100.24C100.756 100.24 100.921 100.318 101.176 100.476C101.762 100.793 102.343 101.054 102.919 101.259C103.495 101.468 104.195 101.571 105.016 101.571C105.659 101.571 106.23 101.441 106.731 101.186C107.232 100.93 107.619 100.57 107.893 100.106C108.176 99.6349 108.318 99.0934 108.318 98.4823C108.318 97.832 108.148 97.2965 107.808 96.8734C107.478 96.4407 107.071 96.0991 106.589 95.854C106.117 95.5968 105.427 95.2825 104.521 94.9101C103.538 94.5142 102.759 94.1511 102.182 93.8155C101.616 93.4704 101.129 92.9745 100.723 92.3242C100.326 91.6739 100.127 90.812 100.127 89.741C100.127 88.8036 100.359 87.9685 100.822 87.2307C101.285 86.4806 101.941 85.8998 102.792 85.4854C103.642 85.0741 104.62 84.8654 105.725 84.8654C106.226 84.8654 106.797 84.941 107.44 85.0892C108.082 85.2253 108.63 85.4189 109.083 85.6639C109.546 85.9089 109.778 86.1811 109.778 86.4775C109.778 86.6045 109.726 86.78 109.622 87.0068C109.527 87.2246 109.414 87.4212 109.282 87.5997C109.149 87.7749 109.046 87.8629 108.97 87.8629C108.885 87.8629 108.715 87.7901 108.46 87.642C108.035 87.4061 107.615 87.2186 107.199 87.0825C106.783 86.9342 106.278 86.8586 105.682 86.8586C104.709 86.8586 103.921 87.1218 103.316 87.642C102.721 88.1653 102.423 88.8944 102.423 89.829C102.423 90.3885 102.555 90.8512 102.82 91.2172C103.085 91.5803 103.42 91.8707 103.826 92.0882C104.232 92.3062 104.799 92.5569 105.527 92.8413C105.574 92.8505 105.682 92.8897 105.852 92.9593C106.854 93.3648 107.671 93.7579 108.304 94.1419C108.946 94.5142 109.49 95.0553 109.933 95.7664C110.387 96.4739 110.614 97.3813 110.614 98.4823C110.614 99.517 110.382 100.418 109.92 101.186C109.466 101.955 108.814 102.544 107.964 102.959C107.123 103.361 106.141 103.564 105.016 103.564ZM117.019 103.564C115.734 103.564 114.695 103.234 113.901 102.575C113.108 101.915 112.711 100.936 112.711 99.6349C112.711 98.2676 113.113 97.2361 113.916 96.5495C114.719 95.848 115.696 95.4001 116.849 95.2037C118.011 94.9981 119.418 94.8801 121.072 94.8498V93.6096C121.072 92.9505 120.854 92.4242 120.42 92.0278C119.995 91.6255 119.291 91.4227 118.308 91.4227C117.562 91.4227 116.906 91.5167 116.339 91.7043C115.781 91.8827 115.257 92.0974 114.766 92.3546C114.558 92.4634 114.431 92.5177 114.383 92.5177C114.27 92.5177 114.142 92.433 114.001 92.2666C113.868 92.0882 113.75 91.8919 113.646 91.6739C113.552 91.4591 113.505 91.302 113.505 91.202C113.505 90.9752 113.727 90.73 114.171 90.4641C114.624 90.1977 115.215 89.977 115.942 89.7986C116.669 89.623 117.43 89.5323 118.223 89.5323C119.801 89.5323 121.024 89.8922 121.894 90.6121C122.763 91.3291 123.197 92.3394 123.197 93.64V99.5318C123.197 100.675 123.245 101.501 123.339 102.012C123.443 102.514 123.495 102.79 123.495 102.841C123.495 103.056 123.334 103.213 123.013 103.313C122.701 103.4 122.408 103.446 122.134 103.446C121.908 103.446 121.738 103.313 121.624 103.047C121.52 102.78 121.417 102.396 121.312 101.894L121.256 101.601C120.736 102.2 120.122 102.678 119.414 103.032C118.714 103.386 117.916 103.564 117.019 103.564ZM117.132 101.658C117.964 101.658 118.672 101.501 119.258 101.186C119.843 100.872 120.448 100.424 121.072 99.8405V96.7402C119.825 96.7494 118.799 96.8038 117.997 96.9034C117.193 97.0002 116.49 97.2513 115.885 97.6565C115.281 98.05 114.978 98.6639 114.978 99.5018C114.978 100.2 115.158 100.739 115.517 101.111C115.885 101.477 116.424 101.658 117.132 101.658ZM130.538 103.564C129.697 103.564 128.946 103.298 128.285 102.765C127.623 102.233 127.293 101.295 127.293 99.9465V84.2453C127.293 83.8618 127.628 83.67 128.299 83.67H128.412C129.073 83.67 129.404 83.8618 129.404 84.2453V99.7377C129.404 100.458 129.527 100.96 129.773 101.244C130.018 101.531 130.349 101.673 130.764 101.673C131.076 101.673 131.322 101.652 131.501 101.613C131.681 101.573 131.799 101.555 131.856 101.555C132.007 101.555 132.129 101.713 132.224 102.027C132.328 102.342 132.38 102.593 132.38 102.78C132.38 103.304 131.766 103.564 130.538 103.564ZM140.302 103.564C138.214 103.564 136.66 102.998 135.639 101.864C134.628 100.724 134.123 98.9815 134.123 96.6375C134.123 94.3142 134.619 92.5509 135.611 91.3503C136.603 90.1373 138.062 89.5323 139.99 89.5323C141.709 89.5323 143.003 90.1134 143.872 91.2748C144.751 92.439 145.19 94.1419 145.19 96.3863C145.19 96.4831 145.138 96.6223 145.034 96.8006C144.94 96.967 144.822 97.1182 144.68 97.2573C144.548 97.3845 144.434 97.4481 144.34 97.4481H136.39C136.494 98.9151 136.853 99.9889 137.467 100.669C138.091 101.338 139.026 101.673 140.273 101.673C140.972 101.673 141.572 101.586 142.072 101.407C142.583 101.229 143.074 101.014 143.546 100.757C143.593 100.739 143.664 100.702 143.759 100.654C143.853 100.606 143.92 100.582 143.957 100.582C144.061 100.582 144.179 100.669 144.312 100.845C144.453 101.014 144.571 101.205 144.666 101.422C144.77 101.628 144.822 101.782 144.822 101.879C144.822 102.097 144.614 102.339 144.198 102.605C143.783 102.868 143.225 103.095 142.526 103.283C141.836 103.47 141.095 103.564 140.302 103.564ZM142.937 95.5576C142.937 92.8021 141.931 91.4227 139.919 91.4227C137.755 91.4227 136.579 92.8021 136.39 95.5576H142.937ZM151.227 103.667C150.518 103.667 149.857 103.573 149.243 103.386C148.629 103.198 148.138 102.974 147.769 102.708C147.41 102.432 147.231 102.191 147.231 101.982C147.231 101.885 147.278 101.728 147.372 101.51C147.476 101.295 147.595 101.102 147.727 100.936C147.868 100.757 147.996 100.669 148.109 100.669C148.138 100.669 148.223 100.718 148.364 100.818C148.742 101.071 149.139 101.289 149.555 101.468C149.98 101.643 150.485 101.731 151.071 101.731C152.715 101.731 153.536 101.023 153.536 99.6045C153.536 99.2022 153.457 98.8635 153.296 98.5851C153.144 98.31 152.885 98.0712 152.516 97.8624C152.158 97.6477 151.661 97.4389 151.029 97.2421C150.122 96.967 149.413 96.6526 148.903 96.2987C148.402 95.9416 148.048 95.5304 147.84 95.0553C147.632 94.5746 147.528 93.9939 147.528 93.3132C147.528 92.5841 147.703 91.931 148.053 91.3503C148.412 90.7696 148.908 90.3157 149.541 89.9922C150.183 89.6654 150.906 89.5023 151.708 89.5023C152.266 89.5023 152.8 89.5566 153.31 89.6654C153.829 89.7746 154.245 89.9166 154.557 90.095C154.878 90.2613 155.039 90.4397 155.039 90.6273C155.039 90.7636 154.992 90.9508 154.897 91.1868C154.812 91.4139 154.704 91.6163 154.571 91.7919C154.439 91.961 154.321 92.043 154.217 92.043C154.198 92.043 154.08 91.9854 153.863 91.8675C153.645 91.7375 153.366 91.6255 153.027 91.5255C152.696 91.4199 152.328 91.3655 151.921 91.3655C151.279 91.3655 150.745 91.5167 150.32 91.8223C149.904 92.1186 149.696 92.5177 149.696 93.0197C149.696 93.6096 149.848 94.0815 150.15 94.4354C150.452 94.7922 150.953 95.0825 151.652 95.3065C152.729 95.6512 153.551 95.996 154.118 96.3411C154.685 96.6858 155.086 97.1094 155.322 97.6113C155.568 98.1044 155.691 98.7547 155.691 99.5622C155.691 100.33 155.493 101.029 155.095 101.658C154.699 102.278 154.16 102.771 153.48 103.134C152.8 103.491 152.049 103.667 151.227 103.667Z" fill="#FA9B09"/>
<path d="M188.702 103.667C187.802 103.667 186.962 103.563 186.182 103.354C185.411 103.138 184.792 102.879 184.324 102.581C183.865 102.277 183.635 101.998 183.635 101.751C183.635 101.611 183.685 101.429 183.786 101.201C183.897 100.976 184.021 100.772 184.158 100.593C184.296 100.416 184.406 100.325 184.489 100.325C184.562 100.325 184.723 100.404 184.971 100.562C185.54 100.882 186.104 101.143 186.664 101.35C187.224 101.56 187.903 101.663 188.702 101.663C189.326 101.663 189.881 101.532 190.368 101.277C190.854 101.019 191.23 100.657 191.497 100.192C191.772 99.7173 191.91 99.173 191.91 98.5591C191.91 97.9052 191.744 97.3673 191.414 96.9414C191.093 96.5067 190.698 96.1631 190.23 95.9168C189.771 95.6584 189.101 95.3425 188.22 94.9685C187.265 94.5702 186.508 94.2051 185.948 93.8679C185.398 93.5212 184.925 93.0225 184.53 92.369C184.144 91.7151 183.952 90.8488 183.952 89.7726C183.952 88.83 184.177 87.9909 184.626 87.2491C185.076 86.4951 185.714 85.9113 186.54 85.4948C187.366 85.0813 188.316 84.8716 189.39 84.8716C189.877 84.8716 190.432 84.9476 191.056 85.0966C191.68 85.2334 192.213 85.4279 192.653 85.6742C193.103 85.9205 193.328 86.1941 193.328 86.492C193.328 86.6197 193.277 86.7961 193.176 87.0241C193.085 87.243 192.974 87.4406 192.846 87.62C192.718 87.7961 192.616 87.8845 192.543 87.8845C192.46 87.8845 192.295 87.8113 192.047 87.6625C191.634 87.4254 191.226 87.2369 190.822 87.1001C190.418 86.9511 189.927 86.8751 189.349 86.8751C188.404 86.8751 187.637 87.1396 187.05 87.6625C186.471 88.1885 186.182 88.9212 186.182 89.8606C186.182 90.4233 186.311 90.8884 186.568 91.2564C186.825 91.6211 187.151 91.913 187.545 92.1318C187.94 92.3506 188.491 92.6029 189.198 92.8889C189.243 92.8981 189.349 92.9373 189.514 93.0073C190.487 93.4148 191.281 93.8099 191.896 94.1963C192.52 94.5702 193.048 95.1145 193.479 95.8288C193.92 96.5403 194.14 97.4521 194.14 98.5591C194.14 99.5986 193.915 100.505 193.465 101.277C193.025 102.049 192.392 102.642 191.565 103.059C190.748 103.463 189.794 103.667 188.702 103.667ZM202.332 103.667C200.304 103.667 198.794 103.098 197.802 101.958C196.82 100.812 196.329 99.0606 196.329 96.7042C196.329 94.3694 196.811 92.5969 197.775 91.3899C198.739 90.1709 200.157 89.5626 202.029 89.5626C203.7 89.5626 204.957 90.1465 205.802 91.3139C206.655 92.4846 207.082 94.1963 207.082 96.4519C207.082 96.5495 207.032 96.689 206.931 96.8686C206.839 97.0358 206.724 97.1878 206.587 97.3277C206.458 97.4553 206.348 97.5193 206.256 97.5193H198.532C198.633 98.9939 198.982 100.073 199.579 100.757C200.185 101.429 201.093 101.767 202.305 101.767C202.984 101.767 203.567 101.678 204.053 101.499C204.549 101.319 205.026 101.104 205.485 100.845C205.531 100.827 205.6 100.79 205.692 100.742C205.783 100.693 205.848 100.669 205.884 100.669C205.985 100.669 206.1 100.757 206.228 100.934C206.366 101.104 206.481 101.295 206.573 101.514C206.674 101.721 206.724 101.876 206.724 101.973C206.724 102.192 206.522 102.435 206.118 102.703C205.714 102.968 205.173 103.196 204.494 103.384C203.824 103.572 203.103 103.667 202.332 103.667ZM204.893 95.6188C204.893 92.8493 203.916 91.4627 201.96 91.4627C199.858 91.4627 198.716 92.8493 198.532 95.6188H204.893ZM211.392 103.563C211.043 103.563 210.791 103.518 210.634 103.429C210.478 103.329 210.4 103.18 210.4 102.983V93.7187C210.4 92.5725 210.35 91.7455 210.249 91.2412C210.148 90.7272 210.097 90.4445 210.097 90.3957C210.097 90.1769 210.249 90.025 210.552 89.9338C210.864 89.8362 211.158 89.7846 211.433 89.7846C211.653 89.7846 211.818 89.9154 211.928 90.1709C212.039 90.4201 212.135 90.7696 212.217 91.226L212.286 91.5391C213.158 90.2225 214.104 89.5626 215.123 89.5626C215.591 89.5626 215.944 89.657 216.183 89.8454C216.421 90.025 216.541 90.2649 216.541 90.5721C216.541 90.87 216.49 91.1864 216.389 91.5239C216.298 91.8491 216.188 92.013 216.059 92.013C215.995 92.013 215.88 91.9826 215.715 91.925C215.568 91.8551 215.421 91.8067 215.274 91.7763C215.127 91.7367 214.939 91.7151 214.71 91.7151C214.334 91.7151 213.975 91.8339 213.636 92.071C213.305 92.311 213.025 92.5725 212.796 92.8585C212.566 93.1472 212.452 93.3052 212.452 93.3328V102.983C212.452 103.18 212.374 103.329 212.217 103.429C212.062 103.518 211.818 103.563 211.488 103.563H211.392ZM222.668 103.563C222.089 103.563 221.759 103.424 221.676 103.147L217.738 90.4537C217.683 90.2773 217.656 90.1617 217.656 90.113C217.656 89.973 217.743 89.8666 217.918 89.7846C218.092 89.7058 218.358 89.6662 218.716 89.6662H218.84C219.409 89.6662 219.735 89.8058 219.818 90.0826L222.309 98.5011C222.512 99.155 222.746 100.046 223.012 101.173L223.163 101.797H223.273L223.439 101.01C223.64 99.9697 223.829 99.155 224.003 98.5591L226.523 90.0826C226.605 89.8058 226.941 89.6662 227.528 89.6662H227.596C228.212 89.6662 228.519 89.815 228.519 90.113C228.519 90.2101 228.487 90.3321 228.423 90.4689L224.499 103.147C224.416 103.424 224.086 103.563 223.507 103.563H222.668ZM232.126 86.3856C231.475 86.3856 231.149 86.1941 231.149 85.808V84.2483C231.149 83.8628 231.475 83.67 232.126 83.67H232.415C233.076 83.67 233.407 83.8628 233.407 84.2483V85.808C233.407 86.1941 233.076 86.3856 232.415 86.3856H232.126ZM232.223 103.563C231.571 103.563 231.245 103.369 231.245 102.983V90.2469C231.245 89.8606 231.571 89.6662 232.223 89.6662H232.319C232.98 89.6662 233.31 89.8606 233.31 90.2469V102.983C233.31 103.369 232.98 103.563 232.319 103.563H232.223ZM242.811 103.667C240.781 103.667 239.267 103.107 238.266 101.989C237.276 100.86 236.78 99.0486 236.78 96.5555C236.78 94.0319 237.335 92.235 238.446 91.168C239.557 90.0978 240.939 89.5626 242.591 89.5626C243.206 89.5626 243.798 89.6234 244.365 89.7422C244.934 89.8514 245.394 89.9974 245.744 90.1861C246.09 90.3745 246.265 90.5721 246.265 90.782C246.265 90.9188 246.22 91.1012 246.127 91.3291C246.045 91.5571 245.941 91.7611 245.811 91.937C245.693 92.1074 245.583 92.1926 245.482 92.1926C245.453 92.1926 245.414 92.1806 245.358 92.1622C245.301 92.1318 245.253 92.1074 245.205 92.0862C244.379 91.6727 243.491 91.4627 242.535 91.4627C241.407 91.4627 240.533 91.8643 239.918 92.6669C239.304 93.4572 238.996 94.7342 238.996 96.4975C238.996 97.7441 239.12 98.7535 239.369 99.5258C239.617 100.286 240.014 100.852 240.567 101.216C241.125 101.584 241.87 101.767 242.797 101.767C243.815 101.767 244.734 101.539 245.549 101.082C245.634 101.064 245.693 101.043 245.73 101.025C245.775 100.994 245.806 100.979 245.826 100.979C245.927 100.979 246.04 101.064 246.17 101.231C246.299 101.399 246.409 101.593 246.5 101.812C246.601 102.028 246.652 102.201 246.652 102.329C246.652 102.539 246.477 102.746 246.127 102.955C245.78 103.162 245.307 103.335 244.709 103.472C244.122 103.603 243.491 103.667 242.811 103.667ZM254.733 103.667C252.706 103.667 251.194 103.098 250.205 101.958C249.221 100.812 248.73 99.0606 248.73 96.7042C248.73 94.3694 249.212 92.5969 250.176 91.3899C251.141 90.1709 252.559 89.5626 254.431 89.5626C256.101 89.5626 257.358 90.1465 258.204 91.3139C259.055 92.4846 259.484 94.1963 259.484 96.4519C259.484 96.5495 259.434 96.689 259.332 96.8686C259.239 97.0358 259.126 97.1878 258.988 97.3277C258.858 97.4553 258.748 97.5193 258.658 97.5193H250.935C251.033 98.9939 251.383 100.073 251.981 100.757C252.584 101.429 253.495 101.767 254.705 101.767C255.384 101.767 255.968 101.678 256.456 101.499C256.949 101.319 257.429 101.104 257.885 100.845C257.933 100.827 258.001 100.79 258.094 100.742C258.184 100.693 258.249 100.669 258.286 100.669C258.387 100.669 258.5 100.757 258.63 100.934C258.768 101.104 258.884 101.295 258.974 101.514C259.075 101.721 259.126 101.876 259.126 101.973C259.126 102.192 258.923 102.435 258.52 102.703C258.117 102.968 257.575 103.196 256.896 103.384C256.225 103.572 255.506 103.667 254.733 103.667ZM257.293 95.6188C257.293 92.8493 256.318 91.4627 254.361 91.4627C252.26 91.4627 251.118 92.8493 250.935 95.6188H257.293Z" fill="#FA9B09"/>
<path d="M83.8334 99.6673C86.0382 99.6673 87.8254 97.8768 87.8254 95.668C87.8254 93.4592 86.0382 91.6687 83.8334 91.6687C81.6286 91.6687 79.8413 93.4592 79.8413 95.668C79.8413 97.8768 81.6286 99.6673 83.8334 99.6673Z" fill="#FFCB99"/>
<path d="M171.659 99.6673C173.864 99.6673 175.651 97.8768 175.651 95.668C175.651 93.4592 173.864 91.6687 171.659 91.6687C169.454 91.6687 167.667 93.4592 167.667 95.668C167.667 97.8768 169.454 99.6673 171.659 99.6673Z" fill="#FFCB99"/>
<defs>
<linearGradient id="paint0_linear_546_5936" x1="148.182" y1="20.9129" x2="163.279" y2="57.7495" gradientUnits="userSpaceOnUse">
<stop stop-color="#FA9B09"/>
<stop offset="1" stop-color="#FFCB99"/>
</linearGradient>
</defs>
</svg>
