<svg width="38" height="30" viewBox="0 0 38 30" fill="none" xmlns="http://www.w3.org/2000/svg">
<path d="M37.8381 24.061C37.8381 25.6649 37.2598 26.998 36.1034 28.0606C34.9467 29.123 33.3153 29.6543 31.2087 29.6543C29.5394 29.6543 28.061 29.4097 26.7735 28.9205C26.3935 28.7762 26.1593 28.4013 26.1593 27.9941C26.1593 27.2131 26.9907 26.6989 27.733 26.9381C28.8112 27.2855 29.9491 27.4591 31.1468 27.4591C32.4685 27.4591 33.4907 27.1283 34.2137 26.4667C34.9571 25.8051 35.3289 24.9432 35.3289 23.8806C35.3289 22.818 34.9158 22.0062 34.0898 21.4448C33.2842 20.8634 32.1174 20.5728 30.5892 20.5728H30.3237C29.7517 20.5728 29.2881 20.1083 29.2881 19.5354C29.2881 18.9624 29.7517 18.4979 30.3237 18.4979H30.5892C31.7456 18.4979 32.7163 18.1872 33.5011 17.5657C34.3065 16.9242 34.7093 16.0722 34.7093 15.0097C34.7093 13.9472 34.3686 13.1453 33.6869 12.604C33.0054 12.0628 32.0658 11.7921 30.868 11.7921C30.0092 11.7921 29.1732 11.9413 28.3595 12.2397C27.6388 12.5041 26.7789 12.0232 26.7789 11.2542C26.7789 10.9156 26.9515 10.5967 27.2516 10.441C28.3366 9.87829 29.5627 9.59692 30.9299 9.59692C32.9331 9.59692 34.4821 10.0981 35.5766 11.1005C36.6919 12.0828 37.2495 13.3057 37.2495 14.7691C37.2495 15.8316 36.9707 16.7839 36.413 17.6259C35.908 18.4177 36.0562 20.3078 36.6873 21.0029C36.7203 21.0394 36.7528 21.0765 36.7849 21.114C37.487 21.8959 37.8381 22.8783 37.8381 24.061Z" fill="url(#paint0_linear_546_5968)"/>
<mask id="mask0_546_5968" style="mask-type:luminance" maskUnits="userSpaceOnUse" x="0" y="0" width="25" height="30">
<path d="M24.0005 0H0V29.3883H24.0005V0Z" fill="white"/>
</mask>
<g mask="url(#mask0_546_5968)">
<path d="M18.8561 0C21.0948 0 22.9096 1.81816 22.9096 4.06097C22.9096 6.30379 21.0948 8.12194 18.8561 8.12194H9.34605C9.18233 8.12013 9.01986 8.15075 8.86797 8.2122C8.71614 8.27359 8.57791 8.36453 8.46131 8.47973C8.40192 8.53862 8.25685 8.48978 8.26541 8.40649C8.46197 6.49492 9.22238 4.68179 10.4541 3.20074C11.5999 1.82296 13.1015 0.795132 14.7876 0.224716C15.291 0.05441 15.8239 0 16.3553 0H18.8561Z" fill="#FFCB99"/>
<path d="M15.536 20.8822C15.6028 20.8147 15.775 20.8706 15.7651 20.9652C15.5681 22.8573 14.8188 24.6535 13.6058 26.1265C12.4543 27.5249 10.9379 28.5675 9.23272 29.1431C8.74793 29.3067 8.23507 29.3602 7.72352 29.3602H5.52974C3.29147 29.3602 1.47699 27.5424 1.47699 25.2999C1.47699 23.0576 3.29147 21.2399 5.52974 21.2399H14.6512C14.8189 21.2421 14.9853 21.2104 15.1403 21.1463C15.2885 21.0859 15.4231 20.9959 15.536 20.8822Z" fill="#FFCB99"/>
<path d="M24.0007 19.9955C24.0065 21.2482 23.7568 22.4888 23.2669 23.6412C23.1673 23.8732 23.0578 24.1018 22.9391 24.3245C22.9357 24.3339 22.9323 24.3373 22.9323 24.3436C22.9311 24.3484 22.9289 24.3528 22.9259 24.3568C21.9182 26.2653 20.2858 27.7684 18.3029 28.6142C17.15 29.1121 15.9066 29.3657 14.6512 29.3587H8.49664L8.56747 29.3396C10.5559 28.8238 12.3288 27.6876 13.6297 26.0953C14.9306 24.5031 15.6918 22.5371 15.8031 20.4825V20.4791C15.9208 20.1725 15.923 19.8334 15.8095 19.5252C15.8065 19.5188 15.8031 19.5091 15.7997 19.5027C15.7385 19.3545 15.6489 19.2198 15.5359 19.1063C15.4202 18.9901 15.282 18.8988 15.1299 18.8378C14.9778 18.7768 14.8149 18.7474 14.6512 18.7515H9.34616C9.08237 18.7515 8.81856 18.7421 8.55772 18.7162C8.5484 18.7162 8.53864 18.7128 8.52591 18.7128C7.55144 18.6355 6.59664 18.396 5.7008 18.0041C3.47173 17.0428 1.69678 15.2599 0.743157 13.0242C0.617582 12.7362 0.507995 12.4415 0.414887 12.1413C0.136525 11.2427 -0.00334929 10.3068 9.06629e-05 9.36587C-0.00549924 8.11041 0.247456 6.86734 0.743157 5.71429C1.70232 3.48546 3.47601 1.70854 5.7008 0.747638C6.35014 0.462819 7.03204 0.259315 7.73109 0.141731C7.75696 0.134932 7.77606 0.131955 7.78877 0.128556C7.79518 0.126926 7.80171 0.125929 7.80828 0.125581C8.31647 0.0404415 8.83091 -0.00219679 9.34616 -0.00189045H15.5554C13.5583 0.493879 11.7712 1.61518 10.4542 3.19884C9.13716 4.78252 8.35897 6.7459 8.23285 8.80331C8.21926 8.82719 8.20747 8.85203 8.19764 8.87766C8.13411 9.03185 8.10238 9.19736 8.10434 9.36417C8.1025 9.53884 8.1352 9.71212 8.2006 9.87404C8.20743 9.89205 8.21608 9.90927 8.22647 9.92545C8.28192 10.0545 8.36169 10.1717 8.46145 10.2705C8.57757 10.3863 8.7157 10.4776 8.86767 10.539C9.01964 10.6005 9.18232 10.6308 9.34616 10.6282H14.6512C15.904 10.6216 17.145 10.8705 18.2987 11.3599C20.5417 12.3046 22.3261 14.0921 23.2691 16.3393C23.3935 16.6306 23.5023 16.9284 23.5943 17.2316C23.8667 18.1274 24.0037 19.0591 24.0007 19.9955Z" fill="#FA9B09"/>
<g style="mix-blend-mode:multiply" opacity="0.16">
<path d="M15.803 20.4839C15.6912 22.5517 14.9211 24.5292 13.6057 26.1265C12.2903 27.7238 10.4987 28.8572 8.49367 29.3602H6.5376C8.17906 28.5863 9.62812 27.4562 10.7798 26.0521C11.9315 24.6477 12.757 23.0046 13.1964 21.2411H14.6503C14.8179 21.2433 14.9843 21.2116 15.1393 21.1477C15.2876 21.0871 15.4222 20.9973 15.5351 20.8834C15.649 20.7686 15.7399 20.633 15.803 20.4839Z" fill="#FA9B09"/>
</g>
<g style="mix-blend-mode:multiply" opacity="0.16">
<path d="M17.3184 0C15.507 1.35033 11.8298 4.46698 10.9031 8.12194H9.34607C9.18235 8.12013 9.01988 8.15075 8.86799 8.2122C8.71616 8.27359 8.57793 8.36453 8.46133 8.47972C8.3665 8.57379 8.28911 8.68396 8.23273 8.80519C8.35887 6.74778 9.13706 4.78442 10.4541 3.20074C11.7711 1.61707 13.5582 0.495769 15.5553 0H17.3184Z" fill="#FA9B09"/>
</g>
<g style="mix-blend-mode:multiply" opacity="0.25">
<path d="M22.91 2.42999V8.12364H11.5823C12.5247 8.03017 13.4705 7.966 14.4133 7.92054C15.3562 7.87507 16.302 7.83556 17.2444 7.82068C18.1902 7.79179 19.133 7.7952 20.0789 7.78543C20.9271 7.7952 21.7677 7.7952 22.6142 7.81432C22.6236 7.44381 22.6304 7.07286 22.6461 6.69937C22.6622 6.2252 22.6784 5.75142 22.7076 5.27766C22.7542 4.32843 22.8166 3.37751 22.91 2.42999Z" fill="#FA9B09"/>
</g>
<g style="mix-blend-mode:screen" opacity="0.7">
<path d="M24.0007 19.9959C24.0065 21.2485 23.7568 22.489 23.2669 23.6416C23.1673 23.8734 23.0577 24.1021 22.9391 24.3247C22.9713 24.2377 23.0773 23.9602 23.236 23.5349C23.4815 22.8116 23.6424 22.0621 23.7151 21.3015C23.7609 20.798 23.7707 20.2914 23.7444 19.7864C23.7121 19.2278 23.6347 18.6728 23.5128 18.1268C23.4497 17.8444 23.3714 17.5656 23.278 17.2918C23.1685 17.0084 23.0591 16.7211 22.9496 16.4343C22.7041 15.8704 22.4022 15.3327 22.0489 14.8295C21.7043 14.3197 21.3062 13.8484 20.8611 13.4239C20.4326 13.012 19.9674 12.6399 19.4713 12.3124C19.0009 12.0063 18.5072 11.738 17.9945 11.5098C17.5328 11.3107 17.0564 11.1479 16.5695 11.0228C15.8283 10.8387 15.0705 10.7297 14.3076 10.6974C13.7477 10.6549 13.4292 10.6298 13.4292 10.6298H14.6486C15.9014 10.6231 17.1424 10.8721 18.2961 11.3615C20.5391 12.3062 22.3235 14.0937 23.2665 16.3409C23.3911 16.6321 23.4997 16.93 23.5917 17.2332C23.8649 18.1284 24.0027 19.0597 24.0007 19.9959Z" fill="#FA9B09"/>
</g>
<g style="mix-blend-mode:multiply" opacity="0.25">
<path d="M7.4801 29.3588H1.47699V23.2191C1.55079 23.7314 1.59574 24.2388 1.64409 24.7533C1.68268 25.2658 1.71831 25.7782 1.74079 26.2873C1.77302 26.7997 1.77939 27.3126 1.79848 27.825L1.81163 29.0236C2.20056 29.03 2.58989 29.03 2.97925 29.0398C3.47801 29.0593 3.9768 29.0657 4.47854 29.098C5.47906 29.1463 6.47958 29.2203 7.4801 29.3588Z" fill="#FA9B09"/>
</g>
<g style="mix-blend-mode:screen" opacity="0.7">
<path d="M8.52591 18.713C7.55144 18.6358 6.59664 18.3962 5.7008 18.0043C3.47173 17.043 1.69678 15.2601 0.743157 13.0245C0.617582 12.7365 0.507995 12.4417 0.414887 12.1416C0.136525 11.2429 -0.00334929 10.307 9.06629e-05 9.36611C-0.00549924 8.11065 0.247456 6.86759 0.743157 5.71454C1.70232 3.48571 3.47601 1.70878 5.7008 0.747872C6.35014 0.463055 7.03204 0.25955 7.73109 0.141968C7.38043 0.226447 7.03455 0.329704 6.69494 0.451293C4.39112 1.27562 2.48503 2.94452 1.36111 5.12137C0.617857 6.55082 0.267988 8.15277 0.347452 9.76254C0.372375 10.5714 0.512177 11.3726 0.762664 12.142C0.836462 12.3383 0.907299 12.535 0.978128 12.7283L1.02945 12.8732L1.04259 12.9089C1.04555 12.915 1.0477 12.9214 1.04896 12.928L1.08118 12.999L1.20333 13.2731C1.3658 13.6278 1.55171 13.9713 1.75979 14.3013C2.15429 14.9296 2.61964 15.5103 3.14668 16.0319C3.62505 16.4989 4.14877 16.9167 4.71003 17.2794C5.18916 17.584 5.69164 17.8501 6.21271 18.0753C6.61933 18.2485 7.03879 18.3897 7.46728 18.4976C7.81631 18.5872 8.16964 18.6591 8.52591 18.713Z" fill="#FA9B09"/>
</g>
<g style="mix-blend-mode:screen" opacity="0.7">
<path d="M15.5554 0C13.5583 0.495769 11.7712 1.61707 10.4542 3.20074C9.13714 4.78442 8.35895 6.74778 8.23281 8.80519C8.21923 8.82907 8.20744 8.85393 8.1976 8.87954L8.22347 8.79882C8.21373 8.54387 8.21373 8.28638 8.21373 8.02847C8.23281 7.77098 8.26165 7.51308 8.28752 7.25176C8.32993 6.99683 8.38719 6.74187 8.43554 6.48694C8.50001 6.232 8.58696 5.98726 8.66076 5.73275C8.74558 5.4846 8.85077 5.2458 8.95341 5.00106C9.06282 4.76269 9.19177 4.53367 9.30755 4.29829C9.44242 4.06969 9.59044 3.85384 9.73168 3.62821C9.88606 3.41576 10.0468 3.20587 10.208 2.99936C10.3814 2.79965 10.5651 2.60973 10.742 2.41597C10.9349 2.23581 11.1237 2.05524 11.3243 1.88102L11.9516 1.40089C12.1704 1.256 12.3922 1.12046 12.6175 0.981938C12.8524 0.86594 13.081 0.740175 13.3156 0.627151L14.0429 0.34374C14.2974 0.269383 14.5447 0.195449 14.7958 0.13129C15.0468 0.0803017 15.3013 0.0386659 15.5554 0Z" fill="#FA9B09"/>
</g>
<g style="mix-blend-mode:screen" opacity="0.7">
<path d="M15.8614 20.4793C15.8643 20.7437 15.8643 21.0014 15.858 21.2624C15.8418 21.5237 15.8096 21.7815 15.7808 22.0425C15.7358 22.3002 15.6844 22.5582 15.6264 22.8162C15.5619 23.0712 15.4784 23.3223 15.4041 23.5733C15.3193 23.8249 15.2082 24.0633 15.1072 24.3085C14.9983 24.5503 14.8727 24.7822 14.7501 25.0176C14.6182 25.2462 14.4706 25.4655 14.329 25.6911C14.1746 25.907 14.0134 26.1161 13.8527 26.326C13.6792 26.5261 13.4956 26.7194 13.3187 26.9157C13.1257 27.0997 12.937 27.2802 12.7364 27.4574L12.1087 27.941C11.8898 28.086 11.6679 28.2275 11.4428 28.3658L10.7447 28.7301L10.0143 29.0231L9.26446 29.2424C9.07149 29.2811 8.88275 29.3198 8.69189 29.3521L8.73431 29.3583L8.51206 29.3843C8.50909 29.3876 8.49933 29.3876 8.49933 29.3876L8.49595 29.3583L8.49298 29.3296L8.56679 29.3394C10.5552 28.8236 12.3282 27.6874 13.6291 26.0951C14.9299 24.5026 15.6911 22.5369 15.8024 20.4823V20.4789C15.8648 20.3255 15.8955 20.1609 15.8923 19.9953C15.9157 20.1571 15.9051 20.3219 15.8614 20.4793Z" fill="#FA9B09"/>
</g>
</g>
<defs>
<linearGradient id="paint0_linear_546_5968" x1="28.2448" y1="10.4327" x2="35.7761" y2="28.8089" gradientUnits="userSpaceOnUse">
<stop stop-color="#FA9B09"/>
<stop offset="1" stop-color="#FFCB99"/>
</linearGradient>
</defs>
</svg>
