<svg width="24" height="24" viewBox="0 0 24 24" fill="none" xmlns="http://www.w3.org/2000/svg">
<g clip-path="url(#clip0_155_498)">
<path d="M14.291 13.1761H13.7038L13.4957 12.9754C14.2241 12.1281 14.6627 11.028 14.6627 9.83133C14.6627 7.16295 12.4997 5 9.83133 5C7.16295 5 5 7.16295 5 9.83133C5 12.4997 7.16295 14.6627 9.83133 14.6627C11.028 14.6627 12.1281 14.2241 12.9754 13.4957L13.1761 13.7038V14.291L16.8925 18L18 16.8925L14.291 13.1761ZM9.83133 13.1761C7.98056 13.1761 6.48656 11.6821 6.48656 9.83133C6.48656 7.98056 7.98056 6.48656 9.83133 6.48656C11.6821 6.48656 13.1761 7.98056 13.1761 9.83133C13.1761 11.6821 11.6821 13.1761 9.83133 13.1761Z" fill="#222222"/>
</g>
<defs>
<clipPath id="clip0_155_498">
<rect width="24" height="24" fill="white"/>
</clipPath>
</defs>
</svg>
