<svg width="13" height="10" viewBox="0 0 13 10" fill="none" xmlns="http://www.w3.org/2000/svg">
<path d="M2.73483 9.26517C2.88128 9.41161 3.11872 9.41161 3.26517 9.26517L5.65165 6.87868C5.7981 6.73223 5.7981 6.4948 5.65165 6.34835C5.5052 6.2019 5.26777 6.2019 5.12132 6.34835L3 8.46967L0.87868 6.34835C0.732233 6.2019 0.494796 6.2019 0.34835 6.34835C0.201903 6.4948 0.201903 6.73223 0.34835 6.87868L2.73483 9.26517ZM2.625 1L2.625 9H3.375L3.375 1H2.625Z" fill="black"/>
<path d="M9.73483 0.734835C9.88128 0.588388 10.1187 0.588388 10.2652 0.734835L12.6517 3.12132C12.7981 3.26777 12.7981 3.5052 12.6517 3.65165C12.5052 3.7981 12.2678 3.7981 12.1213 3.65165L10 1.53033L7.87868 3.65165C7.73223 3.7981 7.4948 3.7981 7.34835 3.65165C7.2019 3.5052 7.2019 3.26777 7.34835 3.12132L9.73483 0.734835ZM9.625 9V1H10.375V9H9.625Z" fill="black"/>
</svg>
