<svg width="72" height="100" viewBox="0 0 72 100" fill="none" xmlns="http://www.w3.org/2000/svg">
<path d="M6.85725 99.4286H3.42872C2.48201 99.4286 1.71436 98.6609 1.71436 97.7142V94.2857H8.57143V97.7142C8.57162 98.6609 7.80396 99.4286 6.85725 99.4286Z" fill="#AFB9D2"/>
<path d="M68.5709 99.4287H65.1423C64.1956 99.4287 63.428 98.661 63.428 97.7143V94.2858H70.285V97.7143C70.2852 98.661 69.5176 99.4287 68.5709 99.4287Z" fill="#AFB9D2"/>
<path d="M68.5713 95.9999H3.42853C1.53493 95.9999 0 94.465 0 92.5714V3.42853C0 1.53493 1.53493 0 3.42853 0H68.5713C70.4649 0 71.9998 1.53493 71.9998 3.42853V92.5714C71.9998 94.465 70.4649 95.9999 68.5713 95.9999Z" fill="#E4EAF6"/>
<path d="M0 3.42853V20.5714H72V3.42853C71.9998 1.53493 70.4647 0 68.5713 0H3.42853C1.53512 0 0 1.53493 0 3.42853Z" fill="#D7DEED"/>
<path d="M29.1431 0V10.2858C29.1431 14.0728 32.2131 17.1429 36.0001 17.1429C39.7872 17.1429 42.8572 14.0728 42.8572 10.2858V0H29.1431Z" fill="#AFB9D2"/>
<path d="M36.0002 77.1431C50.2018 77.1431 61.7145 65.6304 61.7145 51.4288C61.7145 37.2272 50.2018 25.7145 36.0002 25.7145C21.7986 25.7145 10.2859 37.2272 10.2859 51.4288C10.2859 65.6304 21.7986 77.1431 36.0002 77.1431Z" fill="#C7CFE2"/>
<path d="M35.9998 13.7143C37.8933 13.7143 39.4284 12.1793 39.4284 10.2857C39.4284 8.3922 37.8933 6.85719 35.9998 6.85719C34.1063 6.85719 32.5713 8.3922 32.5713 10.2857C32.5713 12.1793 34.1063 13.7143 35.9998 13.7143Z" fill="#707487"/>
<path d="M49.7144 13.7143C48.7677 13.7143 48 12.9467 48 12V8.57142C48 7.62471 48.7677 6.85706 49.7144 6.85706C50.6611 6.85706 51.4287 7.62471 51.4287 8.57142V12C51.4285 12.9467 50.6611 13.7143 49.7144 13.7143Z" fill="white"/>
<path d="M56.5715 13.7143C55.6248 13.7143 54.8572 12.9467 54.8572 12V8.57142C54.8572 7.62471 55.6248 6.85706 56.5715 6.85706C57.5182 6.85706 58.2859 7.62471 58.2859 8.57142V12C58.2859 12.9467 57.5182 13.7143 56.5715 13.7143Z" fill="#FFF08C"/>
<path d="M63.4282 13.7143C62.4815 13.7143 61.7139 12.9467 61.7139 12V8.57142C61.7139 7.62471 62.4815 6.85706 63.4282 6.85706C64.3749 6.85706 65.1426 7.62471 65.1426 8.57142V12C65.1426 12.9467 64.3749 13.7143 63.4282 13.7143Z" fill="#E4EAF6"/>
<path d="M35.9998 68.5715C45.4675 68.5715 53.1427 60.8964 53.1427 51.4287C53.1427 41.9609 45.4675 34.2858 35.9998 34.2858C26.5321 34.2858 18.8569 41.9609 18.8569 51.4287C18.8569 60.8964 26.5321 68.5715 35.9998 68.5715Z" fill="#00C8F0"/>
<path d="M35.9998 39.4286C44.5912 39.4286 51.6854 45.7553 52.9292 53.9999C53.056 53.159 53.1427 52.3048 53.1427 51.4285C53.1427 41.9607 45.4676 34.2857 35.9998 34.2857C26.532 34.2857 18.8569 41.9607 18.8569 51.4285C18.8569 52.3048 18.9435 53.159 19.0704 53.9999C20.3142 45.7555 27.4084 39.4286 35.9998 39.4286Z" fill="#00AFE1"/>
<path d="M49.7144 78.8572H66.8572C67.8039 78.8572 68.5716 79.6249 68.5716 80.5716V90.8574C68.5716 91.8041 67.8039 92.5717 66.8572 92.5717H49.7144C48.7677 92.5717 48 91.8041 48 90.8574V80.5716C48 79.6249 48.7677 78.8572 49.7144 78.8572Z" fill="#D7DEED"/>
<path d="M22.2854 17.1429H5.14259C4.19588 17.1429 3.42822 16.3752 3.42822 15.4285V5.14289C3.42822 4.19619 4.19588 3.42853 5.14259 3.42853H22.2854C23.2322 3.42853 23.9998 4.19619 23.9998 5.14289V15.4287C23.9998 16.3752 23.2322 17.1429 22.2854 17.1429Z" fill="#C7CFE2"/>
<path d="M17.1427 13.7145H10.2857C9.33895 13.7145 8.57129 14.4821 8.57129 15.4289V17.1432H18.8571V15.4289C18.8569 14.482 18.0894 13.7145 17.1427 13.7145Z" fill="#AFB9D2"/>
<path d="M44.5719 58.1117C45.0047 58.1117 45.4374 58.274 45.7714 58.6012C46.4476 59.2634 46.4594 60.349 45.7965 61.0254C44.6596 62.1863 43.3414 63.1274 41.8774 63.822C41.026 64.2296 39.9999 63.863 39.594 63.0083C39.188 62.1529 39.5523 61.1308 40.4077 60.725C41.5051 60.2043 42.4936 59.4978 43.3474 58.6265C43.6828 58.2839 44.1275 58.1117 44.5719 58.1117Z" fill="#00EBFF"/>
<path d="M25.7109 55.896C26.2927 55.896 26.8592 56.1915 27.1807 56.7254C28.7862 59.3913 31.4647 61.1719 34.5293 61.6104C35.4669 61.7444 36.118 62.6124 35.9833 63.5498C35.8493 64.4874 34.9721 65.136 34.0438 65.0038C29.9548 64.4194 26.3832 62.0464 24.2445 58.4949C23.7557 57.6838 24.0175 56.63 24.8281 56.142C25.1048 55.9746 25.4095 55.896 25.7109 55.896Z" fill="#00DCFF"/>
<path d="M35.9999 30.857C24.6386 30.857 15.4285 40.0672 15.4285 51.4284C15.4285 62.7897 24.6386 71.9998 35.9999 71.9998C47.3611 71.9998 56.5713 62.7897 56.5713 51.4284C56.5713 40.0672 47.3611 30.857 35.9999 30.857ZM35.9999 68.5711C26.532 68.5711 18.857 60.8961 18.857 51.4282C18.857 41.9604 26.532 34.2854 35.9999 34.2854C43.7077 34.2854 50.2265 39.3727 52.384 46.3723C50.8561 46.7182 49.7142 48.0815 49.7142 49.7139V53.1424C49.7142 54.7748 50.8561 56.1381 52.384 56.4839C50.2265 63.4837 43.7077 68.5711 35.9999 68.5711Z" fill="#959CB3"/>
</svg>
